<svg width="214" height="65" viewBox="0 0 214 65" fill="none" xmlns="http://www.w3.org/2000/svg">
<path d="M14.4 14.62C16.6 14.86 18.36 15.25 19.68 15.79C21.02 16.33 21.99 17.04 22.59 17.92C23.19 18.8 23.49 19.9 23.49 21.22C23.49 22.66 23.02 23.92 22.08 25C21.16 26.06 19.88 26.88 18.24 27.46C16.6 28.02 14.73 28.3 12.63 28.3C10.29 28.3 8.31 28.01 6.69 27.43C5.07 26.85 3.86 26.08 3.06 25.12C2.26 24.14 1.86 23.07 1.86 21.91C1.86 21.71 1.92 21.55 2.04 21.43C2.18 21.31 2.35 21.25 2.55 21.25H8.7C9.12 21.25 9.46 21.38 9.72 21.64C10.06 21.96 10.44 22.18 10.86 22.3C11.28 22.4 11.87 22.45 12.63 22.45C14.53 22.45 15.48 22.16 15.48 21.58C15.48 21.34 15.35 21.14 15.09 20.98C14.85 20.8 14.41 20.65 13.77 20.53C13.15 20.39 12.23 20.25 11.01 20.11C8.27 19.79 6.17 19.11 4.71 18.07C3.25 17.01 2.52 15.52 2.52 13.6C2.52 12.24 2.93 11.04 3.75 10C4.57 8.96 5.73 8.15 7.23 7.57C8.75 6.99 10.51 6.7 12.51 6.7C14.59 6.7 16.41 7.03 17.97 7.69C19.53 8.33 20.72 9.13 21.54 10.09C22.36 11.05 22.77 11.99 22.77 12.91C22.77 13.11 22.7 13.27 22.56 13.39C22.44 13.51 22.27 13.57 22.05 13.57H15.6C15.26 13.57 14.95 13.45 14.67 13.21C14.45 13.01 14.19 12.85 13.89 12.73C13.59 12.61 13.13 12.55 12.51 12.55C11.17 12.55 10.5 12.83 10.5 13.39C10.5 13.69 10.76 13.93 11.28 14.11C11.8 14.27 12.84 14.44 14.4 14.62ZM43.0683 7.81C43.3683 7.27 43.7983 7 44.3583 7H49.8483C50.0683 7 50.2583 7.08 50.4183 7.24C50.5783 7.4 50.6583 7.59 50.6583 7.81V27.19C50.6583 27.41 50.5783 27.6 50.4183 27.76C50.2583 27.92 50.0683 28 49.8483 28H44.4183C44.1983 28 44.0083 27.92 43.8483 27.76C43.6883 27.6 43.6083 27.41 43.6083 27.19V17.89L41.4183 22.21C41.3583 22.35 41.2183 22.51 40.9983 22.69C40.7783 22.87 40.4983 22.96 40.1583 22.96H38.1183C37.7783 22.96 37.4983 22.87 37.2783 22.69C37.0583 22.51 36.9183 22.35 36.8583 22.21L34.6683 17.89V27.19C34.6683 27.41 34.5883 27.6 34.4283 27.76C34.2683 27.92 34.0783 28 33.8583 28H28.4283C28.2083 28 28.0183 27.92 27.8583 27.76C27.6983 27.6 27.6183 27.41 27.6183 27.19V7.81C27.6183 7.59 27.6983 7.4 27.8583 7.24C28.0183 7.08 28.2083 7 28.4283 7H33.9183C34.4783 7 34.9083 7.27 35.2083 7.81L39.1383 15.01L43.0683 7.81ZM61.2066 26.98C60.9466 27.66 60.4966 28 59.8566 28H54.1866C54.0066 28 53.8466 27.94 53.7066 27.82C53.5866 27.68 53.5266 27.52 53.5266 27.34L53.5566 27.16L60.0966 7.99C60.1766 7.73 60.3266 7.5 60.5466 7.3C60.7666 7.1 61.0666 7 61.4466 7H69.7866C70.1666 7 70.4666 7.1 70.6866 7.3C70.9066 7.5 71.0566 7.73 71.1366 7.99L77.6766 27.16L77.7066 27.34C77.7066 27.52 77.6366 27.68 77.4966 27.82C77.3766 27.94 77.2266 28 77.0466 28H71.3766C70.7366 28 70.2866 27.66 70.0266 26.98L69.2766 24.88H61.9566L61.2066 26.98ZM65.6166 12.79L63.4866 19.03H67.7466L65.6166 12.79ZM103.825 27.07C103.865 27.15 103.885 27.24 103.885 27.34C103.885 27.52 103.815 27.68 103.675 27.82C103.555 27.94 103.405 28 103.225 28H96.4148C96.1348 28 95.8748 27.93 95.6348 27.79C95.4148 27.65 95.2548 27.47 95.1548 27.25L92.5148 21.31H89.9948V27.19C89.9948 27.41 89.9148 27.6 89.7548 27.76C89.5948 27.92 89.4048 28 89.1848 28H82.7048C82.4848 28 82.2948 27.92 82.1348 27.76C81.9748 27.6 81.8948 27.41 81.8948 27.19V7.81C81.8948 7.59 81.9748 7.4 82.1348 7.24C82.2948 7.08 82.4848 7 82.7048 7H94.3748C96.1748 7 97.7448 7.29 99.0848 7.87C100.445 8.45 101.485 9.29 102.205 10.39C102.925 11.49 103.285 12.78 103.285 14.26C103.285 16.98 102.235 18.95 100.135 20.17L103.825 27.07ZM93.7448 15.76C94.1848 15.76 94.5248 15.62 94.7648 15.34C95.0048 15.04 95.1248 14.67 95.1248 14.23C95.1248 13.79 95.0048 13.41 94.7648 13.09C94.5448 12.75 94.2048 12.58 93.7448 12.58H89.9948V15.76H93.7448ZM128.653 7C128.873 7 129.063 7.08 129.223 7.24C129.383 7.4 129.463 7.59 129.463 7.81V12.64C129.463 12.86 129.383 13.05 129.223 13.21C129.063 13.37 128.873 13.45 128.653 13.45H122.203V27.19C122.203 27.41 122.123 27.6 121.963 27.76C121.803 27.92 121.613 28 121.393 28H115.213C114.993 28 114.803 27.92 114.643 27.76C114.483 27.6 114.403 27.41 114.403 27.19V13.45H107.953C107.733 13.45 107.543 13.37 107.383 13.21C107.223 13.05 107.143 12.86 107.143 12.64V7.81C107.143 7.59 107.223 7.4 107.383 7.24C107.543 7.08 107.733 7 107.953 7H128.653Z" fill="white"/>
<path d="M78.47 50.15C78.69 50.15 78.88 50.23 79.04 50.39C79.2 50.55 79.28 50.74 79.28 50.96V55.19C79.28 55.41 79.2 55.6 79.04 55.76C78.88 55.92 78.69 56 78.47 56H59.51C59.29 56 59.1 55.92 58.94 55.76C58.78 55.6 58.7 55.41 58.7 55.19V35.81C58.7 35.59 58.78 35.4 58.94 35.24C59.1 35.08 59.29 35 59.51 35H78.17C78.39 35 78.58 35.08 78.74 35.24C78.9 35.4 78.98 35.59 78.98 35.81V40.04C78.98 40.26 78.9 40.45 78.74 40.61C78.58 40.77 78.39 40.85 78.17 40.85H66.5V42.74H76.52C76.74 42.74 76.93 42.82 77.09 42.98C77.25 43.14 77.33 43.33 77.33 43.55V47.45C77.33 47.67 77.25 47.86 77.09 48.02C76.93 48.18 76.74 48.26 76.52 48.26H66.5V50.15H78.47ZM96.7883 42.62C98.9883 42.86 100.748 43.25 102.068 43.79C103.408 44.33 104.378 45.04 104.978 45.92C105.578 46.8 105.878 47.9 105.878 49.22C105.878 50.66 105.408 51.92 104.468 53C103.548 54.06 102.268 54.88 100.628 55.46C98.9883 56.02 97.1183 56.3 95.0183 56.3C92.6783 56.3 90.6983 56.01 89.0783 55.43C87.4583 54.85 86.2483 54.08 85.4483 53.12C84.6483 52.14 84.2483 51.07 84.2483 49.91C84.2483 49.71 84.3083 49.55 84.4283 49.43C84.5683 49.31 84.7383 49.25 84.9383 49.25H91.0883C91.5083 49.25 91.8483 49.38 92.1083 49.64C92.4483 49.96 92.8283 50.18 93.2483 50.3C93.6683 50.4 94.2583 50.45 95.0183 50.45C96.9183 50.45 97.8683 50.16 97.8683 49.58C97.8683 49.34 97.7383 49.14 97.4783 48.98C97.2383 48.8 96.7983 48.65 96.1583 48.53C95.5383 48.39 94.6183 48.25 93.3983 48.11C90.6583 47.79 88.5583 47.11 87.0983 46.07C85.6383 45.01 84.9083 43.52 84.9083 41.6C84.9083 40.24 85.3183 39.04 86.1383 38C86.9583 36.96 88.1183 36.15 89.6183 35.57C91.1383 34.99 92.8983 34.7 94.8983 34.7C96.9783 34.7 98.7983 35.03 100.358 35.69C101.918 36.33 103.108 37.13 103.928 38.09C104.748 39.05 105.158 39.99 105.158 40.91C105.158 41.11 105.088 41.27 104.948 41.39C104.828 41.51 104.658 41.57 104.438 41.57H97.9883C97.6483 41.57 97.3383 41.45 97.0583 41.21C96.8383 41.01 96.5783 40.85 96.2783 40.73C95.9783 40.61 95.5183 40.55 94.8983 40.55C93.5583 40.55 92.8883 40.83 92.8883 41.39C92.8883 41.69 93.1483 41.93 93.6683 42.11C94.1883 42.27 95.2283 42.44 96.7883 42.62ZM118.767 47.9C118.767 48.72 119.037 49.35 119.577 49.79C120.137 50.23 120.887 50.45 121.827 50.45C122.667 50.45 123.287 50.31 123.687 50.03C124.087 49.75 124.427 49.33 124.707 48.77C124.967 48.25 125.317 47.99 125.757 47.99H132.237C132.417 47.99 132.567 48.06 132.687 48.2C132.827 48.32 132.897 48.47 132.897 48.65C132.897 49.87 132.487 51.07 131.667 52.25C130.847 53.41 129.597 54.38 127.917 55.16C126.257 55.92 124.227 56.3 121.827 56.3C119.687 56.3 117.777 55.98 116.097 55.34C114.437 54.68 113.117 53.68 112.137 52.34C111.157 50.98 110.667 49.29 110.667 47.27V43.73C110.667 41.71 111.157 40.03 112.137 38.69C113.117 37.33 114.437 36.33 116.097 35.69C117.777 35.03 119.687 34.7 121.827 34.7C124.227 34.7 126.257 35.09 127.917 35.87C129.597 36.63 130.847 37.6 131.667 38.78C132.487 39.94 132.897 41.13 132.897 42.35C132.897 42.53 132.827 42.69 132.687 42.83C132.567 42.95 132.417 43.01 132.237 43.01H125.757C125.317 43.01 124.967 42.75 124.707 42.23C124.427 41.67 124.087 41.25 123.687 40.97C123.287 40.69 122.667 40.55 121.827 40.55C120.887 40.55 120.137 40.77 119.577 41.21C119.037 41.65 118.767 42.28 118.767 43.1V47.9ZM159.825 55.07C159.865 55.15 159.885 55.24 159.885 55.34C159.885 55.52 159.815 55.68 159.675 55.82C159.555 55.94 159.405 56 159.225 56H152.415C152.135 56 151.875 55.93 151.635 55.79C151.415 55.65 151.255 55.47 151.155 55.25L148.515 49.31H145.995V55.19C145.995 55.41 145.915 55.6 145.755 55.76C145.595 55.92 145.405 56 145.185 56H138.705C138.485 56 138.295 55.92 138.135 55.76C137.975 55.6 137.895 55.41 137.895 55.19V35.81C137.895 35.59 137.975 35.4 138.135 35.24C138.295 35.08 138.485 35 138.705 35H150.375C152.175 35 153.745 35.29 155.085 35.87C156.445 36.45 157.485 37.29 158.205 38.39C158.925 39.49 159.285 40.78 159.285 42.26C159.285 44.98 158.235 46.95 156.135 48.17L159.825 55.07ZM149.745 43.76C150.185 43.76 150.525 43.62 150.765 43.34C151.005 43.04 151.125 42.67 151.125 42.23C151.125 41.79 151.005 41.41 150.765 41.09C150.545 40.75 150.205 40.58 149.745 40.58H145.995V43.76H149.745ZM185.463 47.33C185.463 50.39 184.443 52.65 182.403 54.11C180.383 55.57 177.683 56.3 174.303 56.3C170.923 56.3 168.213 55.57 166.173 54.11C164.153 52.65 163.143 50.37 163.143 47.27V43.73C163.143 41.69 163.623 40 164.583 38.66C165.563 37.3 166.893 36.3 168.573 35.66C170.253 35.02 172.163 34.7 174.303 34.7C176.443 34.7 178.343 35.02 180.003 35.66C181.683 36.3 183.013 37.29 183.993 38.63C184.973 39.97 185.463 41.65 185.463 43.67V47.33ZM171.243 47.9C171.243 48.72 171.513 49.35 172.053 49.79C172.613 50.23 173.363 50.45 174.303 50.45C175.243 50.45 175.983 50.23 176.523 49.79C177.083 49.33 177.363 48.69 177.363 47.87V43.13C177.363 42.31 177.083 41.68 176.523 41.24C175.983 40.78 175.243 40.55 174.303 40.55C173.363 40.55 172.613 40.77 172.053 41.21C171.513 41.65 171.243 42.28 171.243 43.1V47.9ZM198.051 55.19C197.991 55.37 197.841 55.55 197.601 55.73C197.381 55.91 197.091 56 196.731 56H192.531C192.151 56 191.831 55.89 191.571 55.67C191.331 55.43 191.191 55.16 191.151 54.86L188.541 35.75V35.66C188.541 35.48 188.601 35.33 188.721 35.21C188.861 35.07 189.021 35 189.201 35H194.361C194.761 35 195.081 35.12 195.321 35.36C195.581 35.6 195.731 35.9 195.771 36.26L196.731 45.44L198.471 40.67C198.531 40.47 198.671 40.28 198.891 40.1C199.131 39.9 199.431 39.8 199.791 39.8H201.831C202.191 39.8 202.481 39.9 202.701 40.1C202.941 40.28 203.091 40.47 203.151 40.67L204.891 45.44L205.851 36.26C205.891 35.9 206.031 35.6 206.271 35.36C206.531 35.12 206.861 35 207.261 35H212.421C212.601 35 212.751 35.07 212.871 35.21C213.011 35.33 213.081 35.48 213.081 35.66V35.75L210.471 54.86C210.431 55.16 210.281 55.43 210.021 55.67C209.781 55.89 209.471 56 209.091 56H204.891C204.531 56 204.231 55.91 203.991 55.73C203.771 55.55 203.631 55.37 203.571 55.19L200.811 48.86L198.051 55.19Z" fill="white"/>
</svg>
